TITLE ""
FILE "P1Q_t_1278-1287.mp3" MP3
  TRACK 01 AUDIO
    TITLE "P1Q_t_1278-1287_01"
    INDEX 01 00:00:00
  TRACK 02 AUDIO
    TITLE "P1Q_t_1278-1287_02"
    INDEX 01 00:00:10
  TRACK 03 AUDIO
    TITLE "P1Q_t_1278-1287_03"
    INDEX 01 00:01:33
  TRACK 04 AUDIO
    TITLE "P1Q_t_1278-1287_04"
    INDEX 01 00:01:55
  TRACK 05 AUDIO
    TITLE "P1Q_t_1278-1287_05"
    INDEX 01 00:03:09
  TRACK 06 AUDIO
    TITLE "P1Q_t_1278-1287_06"
    INDEX 01 00:03:28
  TRACK 07 AUDIO
    TITLE "P1Q_t_1278-1287_07"
    INDEX 01 00:08:37
  TRACK 08 AUDIO
    TITLE "P1Q_t_1278-1287_08"
    INDEX 01 00:09:07
  TRACK 09 AUDIO
    TITLE "P1Q_t_1278-1287_09"
    INDEX 01 00:10:19
  TRACK 10 AUDIO
    TITLE "P1Q_t_1278-1287_10"
    INDEX 01 00:10:38
  TRACK 11 AUDIO
    TITLE "P1Q_t_1278-1287_11"
    INDEX 01 00:13:15
  TRACK 12 AUDIO
    TITLE "P1Q_t_1278-1287_12"
    INDEX 01 00:13:34
  TRACK 13 AUDIO
    TITLE "P1Q_t_1278-1287_13"
    INDEX 01 00:17:58
  TRACK 14 AUDIO
    TITLE "P1Q_t_1278-1287_14"
    INDEX 01 00:18:28
  TRACK 15 AUDIO
    TITLE "P1Q_t_1278-1287_15"
    INDEX 01 00:19:39
  TRACK 16 AUDIO
    TITLE "P1Q_t_1278-1287_16"
    INDEX 01 00:19:59
  TRACK 17 AUDIO
    TITLE "P1Q_t_1278-1287_17"
    INDEX 01 00:23:17
  TRACK 18 AUDIO
    TITLE "P1Q_t_1278-1287_18"
    INDEX 01 00:23:37
  TRACK 19 AUDIO
    TITLE "P1Q_t_1278-1287_19"
    INDEX 01 00:27:35
  TRACK 20 AUDIO
    TITLE "P1Q_t_1278-1287_20"
    INDEX 01 00:28:05
  TRACK 21 AUDIO
    TITLE "P1Q_t_1278-1287_21"
    INDEX 01 00:29:39
  TRACK 22 AUDIO
    TITLE "P1Q_t_1278-1287_22"
    INDEX 01 00:29:59
  TRACK 23 AUDIO
    TITLE "P1Q_t_1278-1287_23"
    INDEX 01 00:32:46
  TRACK 24 AUDIO
    TITLE "P1Q_t_1278-1287_24"
    INDEX 01 00:32:65
  TRACK 25 AUDIO
    TITLE "P1Q_t_1278-1287_25"
    INDEX 01 00:37:60
  TRACK 26 AUDIO
    TITLE "P1Q_t_1278-1287_26"
    INDEX 01 00:38:32
  TRACK 27 AUDIO
    TITLE "P1Q_t_1278-1287_27"
    INDEX 01 00:39:48
  TRACK 28 AUDIO
    TITLE "P1Q_t_1278-1287_28"
    INDEX 01 00:39:69
  TRACK 29 AUDIO
    TITLE "P1Q_t_1278-1287_29"
    INDEX 01 00:42:46
  TRACK 30 AUDIO
    TITLE "P1Q_t_1278-1287_30"
    INDEX 01 00:42:66
  TRACK 31 AUDIO
    TITLE "P1Q_t_1278-1287_31"
    INDEX 01 00:48:33
  TRACK 32 AUDIO
    TITLE "P1Q_t_1278-1287_32"
    INDEX 01 00:49:05
  TRACK 33 AUDIO
    TITLE "P1Q_t_1278-1287_33"
    INDEX 01 00:50:51
  TRACK 34 AUDIO
    TITLE "P1Q_t_1278-1287_34"
    INDEX 01 00:50:71
  TRACK 35 AUDIO
    TITLE "P1Q_t_1278-1287_35"
    INDEX 01 00:54:24
  TRACK 36 AUDIO
    TITLE "P1Q_t_1278-1287_36"
    INDEX 01 00:54:43
  TRACK 37 AUDIO
    TITLE "P1Q_t_1278-1287_37"
    INDEX 01 00:58:63
  TRACK 38 AUDIO
    TITLE "P1Q_t_1278-1287_38"
    INDEX 01 00:59:35
  TRACK 39 AUDIO
    TITLE "P1Q_t_1278-1287_39"
    INDEX 01 01:00:67
  TRACK 40 AUDIO
    TITLE "P1Q_t_1278-1287_40"
    INDEX 01 01:01:12
  TRACK 41 AUDIO
    TITLE "P1Q_t_1278-1287_41"
    INDEX 01 01:04:04
  TRACK 42 AUDIO
    TITLE "P1Q_t_1278-1287_42"
    INDEX 01 01:04:24
  TRACK 43 AUDIO
    TITLE "P1Q_t_1278-1287_43"
    INDEX 01 01:08:14
  TRACK 44 AUDIO
    TITLE "P1Q_t_1278-1287_44"
    INDEX 01 01:08:61
  TRACK 45 AUDIO
    TITLE "P1Q_t_1278-1287_45"
    INDEX 01 01:10:01
  TRACK 46 AUDIO
    TITLE "P1Q_t_1278-1287_46"
    INDEX 01 01:10:23
  TRACK 47 AUDIO
    TITLE "P1Q_t_1278-1287_47"
    INDEX 01 01:12:41
  TRACK 48 AUDIO
    TITLE "P1Q_t_1278-1287_48"
    INDEX 01 01:12:59
  TRACK 49 AUDIO
    TITLE "P1Q_t_1278-1287_49"
    INDEX 01 01:16:33
  TRACK 50 AUDIO
    TITLE "P1Q_t_1278-1287_50"
    INDEX 01 01:17:03
  TRACK 51 AUDIO
    TITLE "P1Q_t_1278-1287_51"
    INDEX 01 01:18:08
  TRACK 52 AUDIO
    TITLE "P1Q_t_1278-1287_52"
    INDEX 01 01:18:30
  TRACK 53 AUDIO
    TITLE "P1Q_t_1278-1287_53"
    INDEX 01 01:21:17
  TRACK 54 AUDIO
    TITLE "P1Q_t_1278-1287_54"
    INDEX 01 01:21:34
  TRACK 55 AUDIO
    TITLE "P1Q_t_1278-1287_55"
    INDEX 01 01:25:30
  TRACK 56 AUDIO
    TITLE "P1Q_t_1278-1287_56"
    INDEX 01 01:26:02
  TRACK 57 AUDIO
    TITLE "P1Q_t_1278-1287_57"
    INDEX 01 01:27:29
  TRACK 58 AUDIO
    TITLE "P1Q_t_1278-1287_58"
    INDEX 01 01:27:51
  TRACK 59 AUDIO
    TITLE "P1Q_t_1278-1287_59"
    INDEX 01 01:30:21
  TRACK 60 AUDIO
    TITLE "P1Q_t_1278-1287_60"
    INDEX 01 01:30:41
  TRACK 61 AUDIO
    TITLE "P1Q_t_1278-1287_61"
    INDEX 01 01:34:60
